<mxfile host="app.diagrams.net" agent="Mozilla/5.0 (Windows NT 10.0; Win64; x64) AppleWebKit/537.36 (KHTML, like Gecko) Chrome/109.0.0.0 Safari/537.36" border="50" scale="3" compressed="false" locked="false" version="24.8.0">
  <diagram name="Blank" id="YmL12bMKpDGza6XwsDPr">
    <mxGraphModel dx="1035" dy="532" grid="0" gridSize="10" guides="1" tooltips="1" connect="1" arrows="1" fold="1" page="0" pageScale="1" pageWidth="827" pageHeight="1169" background="none" math="1" shadow="0">
      <root>
        <mxCell id="X5NqExCQtvZxIxQ7pmgY-0" />
        <mxCell id="1" parent="X5NqExCQtvZxIxQ7pmgY-0" />
        <mxCell id="Gr0Zq-AI6Quabplr0KPa-179" value="Mindmap" style="swimlane;html=1;startSize=20;horizontal=1;containerType=tree;labelBackgroundColor=none;strokeColor=#D4E1F5;strokeWidth=1;fillColor=none;fontFamily=Comic Sans MS;fontSize=9;swimlaneLine=0;dashed=1;collapsible=0;" parent="1" vertex="1">
          <mxGeometry x="121" y="11" width="659" height="441" as="geometry" />
        </mxCell>
        <mxCell id="sm5HSNAQf3B5wRGNNRMc-1" value="FRONT END" style="swimlane;whiteSpace=wrap;html=1;align=left;startSize=23;fillColor=#e1d5e7;strokeColor=#9673a6;" vertex="1" parent="Gr0Zq-AI6Quabplr0KPa-179">
          <mxGeometry x="371" y="322" width="270" height="92" as="geometry" />
        </mxCell>
        <mxCell id="sm5HSNAQf3B5wRGNNRMc-6" value="React" style="ellipse;whiteSpace=wrap;html=1;aspect=fixed;fillColor=#dae8fc;strokeColor=#6c8ebf;" vertex="1" parent="sm5HSNAQf3B5wRGNNRMc-1">
          <mxGeometry x="119.5" y="30" width="52" height="52" as="geometry" />
        </mxCell>
        <mxCell id="sm5HSNAQf3B5wRGNNRMc-7" value="TailwindCSS" style="ellipse;whiteSpace=wrap;html=1;aspect=fixed;fillColor=#dae8fc;strokeColor=#6c8ebf;fontSize=11;" vertex="1" parent="sm5HSNAQf3B5wRGNNRMc-1">
          <mxGeometry x="191.5" y="29" width="54" height="54" as="geometry" />
        </mxCell>
        <mxCell id="sm5HSNAQf3B5wRGNNRMc-4" value="BACK END" style="swimlane;whiteSpace=wrap;html=1;align=left;startSize=23;fillColor=#d5e8d4;strokeColor=#82b366;" vertex="1" parent="Gr0Zq-AI6Quabplr0KPa-179">
          <mxGeometry x="238" y="174.5" width="270" height="92" as="geometry" />
        </mxCell>
        <mxCell id="sm5HSNAQf3B5wRGNNRMc-12" value="Next.JS" style="ellipse;whiteSpace=wrap;html=1;aspect=fixed;fillColor=#dae8fc;strokeColor=#6c8ebf;" vertex="1" parent="sm5HSNAQf3B5wRGNNRMc-4">
          <mxGeometry x="152.5" y="32.5" width="52" height="52" as="geometry" />
        </mxCell>
        <mxCell id="sm5HSNAQf3B5wRGNNRMc-19" style="edgeStyle=orthogonalEdgeStyle;rounded=0;orthogonalLoop=1;jettySize=auto;html=1;" edge="1" parent="sm5HSNAQf3B5wRGNNRMc-4" source="sm5HSNAQf3B5wRGNNRMc-13" target="sm5HSNAQf3B5wRGNNRMc-12">
          <mxGeometry relative="1" as="geometry" />
        </mxCell>
        <mxCell id="sm5HSNAQf3B5wRGNNRMc-13" value="Node.JS" style="ellipse;whiteSpace=wrap;html=1;aspect=fixed;fillColor=#dae8fc;strokeColor=#6c8ebf;" vertex="1" parent="sm5HSNAQf3B5wRGNNRMc-4">
          <mxGeometry x="74.5" y="32.5" width="52" height="52" as="geometry" />
        </mxCell>
        <mxCell id="sm5HSNAQf3B5wRGNNRMc-5" value="DATABASE" style="swimlane;whiteSpace=wrap;html=1;align=left;startSize=23;fillColor=#f8cecc;strokeColor=#b85450;" vertex="1" parent="Gr0Zq-AI6Quabplr0KPa-179">
          <mxGeometry x="21" y="16" width="270" height="109" as="geometry" />
        </mxCell>
        <mxCell id="sm5HSNAQf3B5wRGNNRMc-29" style="edgeStyle=orthogonalEdgeStyle;rounded=0;orthogonalLoop=1;jettySize=auto;html=1;entryX=0;entryY=0.5;entryDx=0;entryDy=0;" edge="1" parent="sm5HSNAQf3B5wRGNNRMc-5" source="sm5HSNAQf3B5wRGNNRMc-20" target="sm5HSNAQf3B5wRGNNRMc-23">
          <mxGeometry relative="1" as="geometry" />
        </mxCell>
        <mxCell id="sm5HSNAQf3B5wRGNNRMc-20" value="PostgreSQL" style="ellipse;whiteSpace=wrap;html=1;aspect=fixed;fillColor=#dae8fc;strokeColor=#6c8ebf;fontSize=9;" vertex="1" parent="sm5HSNAQf3B5wRGNNRMc-5">
          <mxGeometry x="12" y="24" width="52" height="52" as="geometry" />
        </mxCell>
        <mxCell id="sm5HSNAQf3B5wRGNNRMc-23" value="Prisma" style="ellipse;whiteSpace=wrap;html=1;aspect=fixed;fillColor=#dae8fc;strokeColor=#6c8ebf;fontSize=9;" vertex="1" parent="sm5HSNAQf3B5wRGNNRMc-5">
          <mxGeometry x="82" y="24" width="52" height="52" as="geometry" />
        </mxCell>
        <mxCell id="sm5HSNAQf3B5wRGNNRMc-30" value="NextAuth" style="ellipse;whiteSpace=wrap;html=1;aspect=fixed;fillColor=#dae8fc;strokeColor=#6c8ebf;fontSize=9;" vertex="1" parent="sm5HSNAQf3B5wRGNNRMc-5">
          <mxGeometry x="155" y="71" width="38" height="38" as="geometry" />
        </mxCell>
        <mxCell id="sm5HSNAQf3B5wRGNNRMc-31" value="" style="edgeStyle=orthogonalEdgeStyle;rounded=0;orthogonalLoop=1;jettySize=auto;html=1;entryX=0.5;entryY=0;entryDx=0;entryDy=0;" edge="1" parent="sm5HSNAQf3B5wRGNNRMc-5" source="sm5HSNAQf3B5wRGNNRMc-23" target="sm5HSNAQf3B5wRGNNRMc-30">
          <mxGeometry relative="1" as="geometry">
            <mxPoint x="241" y="95" as="sourcePoint" />
            <mxPoint x="230" y="183" as="targetPoint" />
          </mxGeometry>
        </mxCell>
        <mxCell id="sm5HSNAQf3B5wRGNNRMc-16" style="edgeStyle=orthogonalEdgeStyle;rounded=0;orthogonalLoop=1;jettySize=auto;html=1;" edge="1" parent="Gr0Zq-AI6Quabplr0KPa-179" source="sm5HSNAQf3B5wRGNNRMc-12" target="sm5HSNAQf3B5wRGNNRMc-6">
          <mxGeometry relative="1" as="geometry" />
        </mxCell>
        <mxCell id="sm5HSNAQf3B5wRGNNRMc-18" style="edgeStyle=orthogonalEdgeStyle;rounded=0;orthogonalLoop=1;jettySize=auto;html=1;" edge="1" parent="Gr0Zq-AI6Quabplr0KPa-179" source="sm5HSNAQf3B5wRGNNRMc-12" target="sm5HSNAQf3B5wRGNNRMc-7">
          <mxGeometry relative="1" as="geometry" />
        </mxCell>
        <mxCell id="sm5HSNAQf3B5wRGNNRMc-27" style="edgeStyle=orthogonalEdgeStyle;rounded=0;orthogonalLoop=1;jettySize=auto;html=1;entryX=0.5;entryY=0;entryDx=0;entryDy=0;" edge="1" parent="Gr0Zq-AI6Quabplr0KPa-179" source="sm5HSNAQf3B5wRGNNRMc-30" target="sm5HSNAQf3B5wRGNNRMc-13">
          <mxGeometry relative="1" as="geometry" />
        </mxCell>
        <mxCell id="sm5HSNAQf3B5wRGNNRMc-32" value="&lt;ul&gt;&lt;li&gt;Banco de dados relacional feito PostgreSQL;&lt;/li&gt;&lt;li&gt;Mapeado e organizado através do Prisma;&lt;/li&gt;&lt;li&gt;O controle de acesso/autitenticação é feito usando o NextAuth.&lt;/li&gt;&lt;/ul&gt;" style="text;html=1;align=left;verticalAlign=middle;whiteSpace=wrap;rounded=0;labelBackgroundColor=none;" vertex="1" parent="Gr0Zq-AI6Quabplr0KPa-179">
          <mxGeometry x="286" y="6" width="302" height="113" as="geometry" />
        </mxCell>
        <mxCell id="sm5HSNAQf3B5wRGNNRMc-33" value="&lt;ul&gt;&lt;li&gt;Node.JS faz o código Typescript rodar sem precisar ser na web;&lt;/li&gt;&lt;li&gt;Next.JS é um framework de Node.JS, facilitando a construção do sisteminha e da UI.&lt;/li&gt;&lt;/ul&gt;" style="text;html=1;align=left;verticalAlign=middle;whiteSpace=wrap;rounded=0;textShadow=0;" vertex="1" parent="Gr0Zq-AI6Quabplr0KPa-179">
          <mxGeometry x="-25" y="158" width="256" height="113" as="geometry" />
        </mxCell>
        <mxCell id="sm5HSNAQf3B5wRGNNRMc-34" value="&lt;ul&gt;&lt;li&gt;React é o framework utilizado pelo Next.JS para a construção da interface;&lt;/li&gt;&lt;li&gt;TailwindCSS é um framework CSS que nos permite configurar a UI sem precisar escrever css.&lt;/li&gt;&lt;/ul&gt;" style="text;html=1;align=left;verticalAlign=middle;whiteSpace=wrap;rounded=0;textShadow=0;" vertex="1" parent="Gr0Zq-AI6Quabplr0KPa-179">
          <mxGeometry x="66" y="309" width="256" height="113" as="geometry" />
        </mxCell>
      </root>
    </mxGraphModel>
  </diagram>
</mxfile>
